<?xml version="1.0" standalone="no"?>
<!DOCTYPE svg PUBLIC "-//W3C//DTD SVG 20010904//EN"
 "http://www.w3.org/TR/2001/REC-SVG-20010904/DTD/svg10.dtd">
<svg version="1.0" xmlns="http://www.w3.org/2000/svg"
 width="512.000000pt" height="512.000000pt" viewBox="0 0 512.000000 512.000000"
 preserveAspectRatio="xMidYMid meet">

<g transform="translate(0.000000,512.000000) scale(0.100000,-0.100000)"
fill="#000000" stroke="none">
<path d="M0 2560 l0 -2560 2560 0 2560 0 0 2560 0 2560 -2560 0 -2560 0 0
-2560z m3878 1122 c259 -86 472 -159 472 -162 0 -3 -256 -76 -570 -161 -313
-86 -570 -153 -570 -148 0 4 11 53 24 108 l24 101 -575 0 -575 0 -27 -28 c-31
-30 -56 -124 -141 -522 -23 -107 -46 -211 -51 -230 l-9 -35 -532 -131 c-293
-72 -536 -129 -539 -128 -3 2 49 225 116 496 83 337 130 510 150 548 36 70
125 157 197 192 133 65 81 62 1107 68 l934 5 14 60 c30 131 32 137 56 130 12
-4 235 -77 495 -163z m281 -789 c-76 -320 -130 -526 -146 -557 -34 -66 -115
-146 -184 -180 -130 -63 -73 -60 -1123 -66 l-959 -5 -95 -405 c-52 -223 -97
-408 -101 -411 -3 -4 -183 216 -399 488 -217 272 -392 496 -390 497 5 5 1092
275 1095 273 1 -2 -9 -45 -22 -97 -14 -52 -25 -101 -25 -107 0 -10 122 -13
579 -13 545 0 580 1 601 18 19 16 36 76 109 403 l87 384 545 156 c392 113 545
153 547 144 2 -7 -52 -242 -119 -522z"/>
</g>
</svg>
